<svg xmlns="http://www.w3.org/2000/svg" width="1560" height="1080" viewBox="0 0 1560 1080">
  <title>bugboard-hover-light</title>
  <g style="isolation: isolate">
    <g id="box10">
      <g style="opacity: 0.63">
        <rect x="1163.15" y="681.48" width="99.83" height="91.6" style="fill: #3e1c2c"/>
        <rect x="1163.15" y="681.48" width="99.83" height="91.6" style="fill: none;stroke: #fff;stroke-miterlimit: 10;opacity: 0.5;mix-blend-mode: multiply"/>
      </g>
    </g>
    <g id="box9">
      <g style="opacity: 0.63">
        <rect x="1163.15" y="558.89" width="99.83" height="92.59" style="fill: #3e1c2c"/>
        <rect x="1163.15" y="558.89" width="99.83" height="92.59" style="fill: none;stroke: #fff;stroke-miterlimit: 10;opacity: 0.5;mix-blend-mode: multiply"/>
      </g>
    </g>
    <g id="box8">
      <g style="opacity: 0.63">
        <rect x="862.43" y="558.88" width="270.37" height="214.18" style="fill: #3e1c2c"/>
        <rect x="862.43" y="558.88" width="270.37" height="214.18" style="fill: none;stroke: #fff;stroke-miterlimit: 10;opacity: 0.5;mix-blend-mode: multiply"/>
      </g>
    </g>
    <g id="box7">
      <g style="opacity: 0.63">
        <rect x="671.02" y="558.96" width="158.92" height="214.1" style="fill: #3e1c2c"/>
        <rect x="671.02" y="558.96" width="158.92" height="214.1" style="fill: none;stroke: #fff;stroke-miterlimit: 10;opacity: 0.5;mix-blend-mode: multiply"/>
      </g>
    </g>
    <g id="box6">
      <g style="opacity: 0.63">
        <rect x="293.61" y="558.16" width="347.22" height="214.9" style="fill: #3e1c2c"/>
        <rect x="293.61" y="558.16" width="347.22" height="214.9" style="fill: none;stroke: #fff;stroke-miterlimit: 10;opacity: 0.5;mix-blend-mode: multiply"/>
      </g>
    </g>
    <g id="box5">
      <g style="opacity: 0.63">
        <polygon points="805.71 528.98 805.71 422.58 981.26 422.58 981.26 528.89 805.71 528.98" style="fill: #3e1c2c"/>
        <polygon points="805.71 528.98 805.71 422.58 981.26 422.58 981.26 528.89 805.71 528.98" style="fill: none;stroke: #fff;stroke-miterlimit: 10;opacity: 0.5;mix-blend-mode: multiply"/>
      </g>
    </g>
    <g id="box4">
      <g style="opacity: 0.63">
        <rect x="293.61" y="451.82" width="128.66" height="74.89" style="fill: #3e1c2c"/>
        <rect x="293.61" y="451.82" width="128.66" height="74.89" style="fill: none;stroke: #fff;stroke-miterlimit: 10;opacity: 0.5;mix-blend-mode: multiply"/>
      </g>
    </g>
    <g id="box3">
      <g style="opacity: 0.63">
        <polygon points="1011.4 189.42 1262.92 189.42 1262.92 528.43 1011.25 528.43 1011.4 189.42" style="fill: #3e1c2c"/>
        <polygon points="1011.4 189.42 1262.92 189.42 1262.92 528.43 1011.25 528.43 1011.4 189.42" style="fill: none;stroke: #fff;stroke-miterlimit: 10;opacity: 0.5;mix-blend-mode: multiply"/>
      </g>
    </g>
    <g id="box2">
      <g style="opacity: 0.63">
        <rect x="805.71" y="189.42" width="175.56" height="203.16" style="fill: #3e1c2c"/>
        <rect x="805.71" y="189.42" width="175.56" height="203.16" style="fill: none;stroke: #fff;stroke-miterlimit: 10;opacity: 0.5;mix-blend-mode: multiply"/>
      </g>
    </g>
    <g id="box1">
      <g style="opacity: 0.63">
        <polygon points="775.38 189.42 775.72 526.72 449.74 526.72 449.74 424.35 293.61 424.35 293.61 189.42 775.38 189.42" style="fill: #3e1c2c"/>
        <polygon points="775.38 189.42 775.72 526.72 449.74 526.72 449.74 424.35 293.61 424.35 293.61 189.42 775.38 189.42" style="fill: none;stroke: #fff;stroke-miterlimit: 10;opacity: 0.5;mix-blend-mode: multiply"/>
      </g>
    </g>
  </g>
</svg>
